<!--?xml version="1.0" encoding="utf-8"?-->

<svg version="1.1" xmlns="http://www.w3.org/2000/svg" xmlns:xlink="http://www.w3.org/1999/xlink">
<g id="icon-rotate">
<g fill="green">
<path d="M256 32 Q480 32 480 256 Q480 480 256 480 L256 520 L136 440 L256 360 L256 400 Q400 400 400 256 Q400 112 256 112Z" />
 </g>
</g>
<g id="icon-reverse">
<g fill="green">
<path d="M256 32 Q32 32 32 256 Q32 480 256 480 L256 520 L376 440 L256 360 L256 400 Q112 400 112 256 Q112 112 256 112Z" />
 </g>
</g>
<g id="icon-left">
<g fill="black">
<path d="M500,500L12,256L500,12Z"/>
</g>
</g>
<g id="icon-right">
<g fill="black">
<path d="M12,12L500,256L12,500Z"/>
</g>
</g>
<g id="icon-up">
<g fill="black">
<path d="M500,500L256,12L1,500Z"/>
</g>
</g>
<g id="icon-down">
<g fill="black">
<path d="M12,12L256,500L500,12Z"/>
</g>
</g>
<g id="icon-harddown">
<g fill="black">
<path d="M12,12L254,256L12,256L256,500L500,256L258,256L500,12Z"/>
</g>
</g>
<g id="icon-start">
<g fill="blue">
<path d="M256,0C114.84,0,0,114.84,0,256s114.84,256,256,256s256-114.84,256-256S397.16,0,256,0z M256,472
  c-119.103,0-216-96.897-216-216S136.897,40,256,40s216,96.897,216,216S375.103,472,256,472zM130,100L442,256L130,412Z"/>
</g>
</g>
<g id="icon-hold">
<g fill="black">
<path d="M256,0C114.84,0,0,114.84,0,256s114.84,256,256,256s256-114.84,256-256S397.16,0,256,0z M256,472
  c-119.103,0-216-96.897-216-216S136.897,40,256,40s216,96.897,216,216S375.103,472,256,472zM102,102L410,102L410,410L102,410Z"/>
</g>
</g>
</svg>